<?xml version="1.0" encoding="UTF-8" standalone="no"?><svg xmlns="http://www.w3.org/2000/svg" xmlns:xlink="http://www.w3.org/1999/xlink" contentStyleType="text/css" height="744px" preserveAspectRatio="none" style="width:806px;height:744px;background:#FFFFFF;" version="1.1" viewBox="0 0 806 744" width="806px" zoomAndPan="magnify"><defs/><g><rect fill="#FFFFFF" height="639.125" style="stroke:#181818;stroke-width:1.0;" width="10" x="150" y="52.2969"/><rect fill="#FFFFFF" height="28" style="stroke:#181818;stroke-width:1.0;" width="10" x="155" y="533.1563"/><rect fill="#FFFFFF" height="304.1953" style="stroke:#181818;stroke-width:1.0;" width="10" x="471" y="124.5625"/><rect fill="#FFFFFF" height="73.1328" style="stroke:#181818;stroke-width:1.0;" width="10" x="471" y="597.2891"/><rect fill="#FFFFFF" height="30" style="stroke:#181818;stroke-width:1.0;" width="10" x="601" y="310.4922"/><rect fill="#FFFFFF" height="30" style="stroke:#181818;stroke-width:1.0;" width="10" x="601" y="369.625"/><rect fill="#FFFFFF" height="30" style="stroke:#181818;stroke-width:1.0;" width="10" x="601" y="626.4219"/><rect height="82.5313" style="stroke:#000000;stroke-width:1.5;fill:none;" width="674" x="115" y="139.5625"/><rect height="46.2656" style="stroke:#000000;stroke-width:1.5;fill:none;" width="434.5" x="115" y="236.0938"/><rect height="191.5313" style="stroke:#000000;stroke-width:1.5;fill:none;" width="557.5" x="115" y="486.8906"/><line style="stroke:#181818;stroke-width:0.5;fill:none;stroke-dasharray:5.0,5.0;" x1="60" x2="60" y1="36.2969" y2="709.4219"/><line style="stroke:#181818;stroke-width:0.5;fill:none;stroke-dasharray:5.0,5.0;" x1="155" x2="155" y1="36.2969" y2="709.4219"/><line style="stroke:#181818;stroke-width:0.5;fill:none;stroke-dasharray:5.0,5.0;" x1="475.5" x2="475.5" y1="36.2969" y2="709.4219"/><line style="stroke:#181818;stroke-width:0.5;fill:none;stroke-dasharray:5.0,5.0;" x1="605.5" x2="605.5" y1="36.2969" y2="709.4219"/><rect fill="#E2E2F0" height="30.2969" rx="2.5" ry="2.5" style="stroke:#181818;stroke-width:0.5;" width="110" x="5" y="5"/><text fill="#000000" font-family="sans-serif" font-size="14" lengthAdjust="spacing" textLength="96" x="12" y="24.9951">AssetBrowser</text><rect fill="#E2E2F0" height="30.2969" rx="2.5" ry="2.5" style="stroke:#181818;stroke-width:0.5;" width="110" x="5" y="708.4219"/><text fill="#000000" font-family="sans-serif" font-size="14" lengthAdjust="spacing" textLength="96" x="12" y="728.417">AssetBrowser</text><rect fill="#E2E2F0" height="30.2969" rx="2.5" ry="2.5" style="stroke:#181818;stroke-width:0.5;" width="60" x="125" y="5"/><text fill="#000000" font-family="sans-serif" font-size="14" lengthAdjust="spacing" textLength="46" x="132" y="24.9951">FileList</text><rect fill="#E2E2F0" height="30.2969" rx="2.5" ry="2.5" style="stroke:#181818;stroke-width:0.5;" width="60" x="125" y="708.4219"/><text fill="#000000" font-family="sans-serif" font-size="14" lengthAdjust="spacing" textLength="46" x="132" y="728.417">FileList</text><rect fill="#E2E2F0" height="30.2969" rx="2.5" ry="2.5" style="stroke:#181818;stroke-width:0.5;" width="127" x="412.5" y="5"/><text fill="#000000" font-family="sans-serif" font-size="14" lengthAdjust="spacing" textLength="113" x="419.5" y="24.9951">AssetFileIndexer</text><rect fill="#E2E2F0" height="30.2969" rx="2.5" ry="2.5" style="stroke:#181818;stroke-width:0.5;" width="127" x="412.5" y="708.4219"/><text fill="#000000" font-family="sans-serif" font-size="14" lengthAdjust="spacing" textLength="113" x="419.5" y="728.417">AssetFileIndexer</text><rect fill="#E2E2F0" height="30.2969" rx="2.5" ry="2.5" style="stroke:#181818;stroke-width:0.5;" width="113" x="549.5" y="5"/><text fill="#000000" font-family="sans-serif" font-size="14" lengthAdjust="spacing" textLength="99" x="556.5" y="24.9951">AssetIndexFile</text><rect fill="#E2E2F0" height="30.2969" rx="2.5" ry="2.5" style="stroke:#181818;stroke-width:0.5;" width="113" x="549.5" y="708.4219"/><text fill="#000000" font-family="sans-serif" font-size="14" lengthAdjust="spacing" textLength="99" x="556.5" y="728.417">AssetIndexFile</text><rect fill="#FFFFFF" height="639.125" style="stroke:#181818;stroke-width:1.0;" width="10" x="150" y="52.2969"/><rect fill="#FFFFFF" height="28" style="stroke:#181818;stroke-width:1.0;" width="10" x="155" y="533.1563"/><rect fill="#FFFFFF" height="304.1953" style="stroke:#181818;stroke-width:1.0;" width="10" x="471" y="124.5625"/><rect fill="#FFFFFF" height="73.1328" style="stroke:#181818;stroke-width:1.0;" width="10" x="471" y="597.2891"/><rect fill="#FFFFFF" height="30" style="stroke:#181818;stroke-width:1.0;" width="10" x="601" y="310.4922"/><rect fill="#FFFFFF" height="30" style="stroke:#181818;stroke-width:1.0;" width="10" x="601" y="369.625"/><rect fill="#FFFFFF" height="30" style="stroke:#181818;stroke-width:1.0;" width="10" x="601" y="626.4219"/><polygon fill="#181818" points="138,48.2969,148,52.2969,138,56.2969,142,52.2969" style="stroke:#181818;stroke-width:1.0;"/><line style="stroke:#181818;stroke-width:1.0;" x1="60" x2="144" y1="52.2969" y2="52.2969"/><rect fill="#EEEEEE" height="3" style="stroke:#EEEEEE;stroke-width:1.0;" width="799" x="0" y="80.8633"/><line style="stroke:#000000;stroke-width:1.0;" x1="0" x2="799" y1="80.8633" y2="80.8633"/><line style="stroke:#000000;stroke-width:1.0;" x1="0" x2="799" y1="83.8633" y2="83.8633"/><rect fill="#EEEEEE" height="23.1328" style="stroke:#000000;stroke-width:2.0;" width="198" x="300.5" y="70.2969"/><text fill="#000000" font-family="sans-serif" font-size="13" font-weight="bold" lengthAdjust="spacing" textLength="179" x="306.5" y="86.3638">Reading asset file index</text><polygon fill="#181818" points="459,120.5625,469,124.5625,459,128.5625,463,124.5625" style="stroke:#181818;stroke-width:1.0;"/><line style="stroke:#181818;stroke-width:1.0;" x1="160" x2="465" y1="124.5625" y2="124.5625"/><text fill="#000000" font-family="sans-serif" font-size="13" lengthAdjust="spacing" textLength="214" x="167" y="119.4966">read_index(filepath_to_asset_file)</text><path d="M115,139.5625 L179,139.5625 L179,146.6953 L169,156.6953 L115,156.6953 L115,139.5625 " fill="#EEEEEE" style="stroke:#000000;stroke-width:1.5;"/><rect fill="none" height="82.5313" style="stroke:#000000;stroke-width:1.5;" width="674" x="115" y="139.5625"/><text fill="#000000" font-family="sans-serif" font-size="13" font-weight="bold" lengthAdjust="spacing" textLength="19" x="130" y="152.6294">alt</text><text fill="#000000" font-family="sans-serif" font-size="11" font-weight="bold" lengthAdjust="spacing" textLength="194" x="194" y="151.7729">[asset index file is up to date]</text><polygon fill="#181818" points="171,191.9609,161,195.9609,171,199.9609,167,195.9609" style="stroke:#181818;stroke-width:1.0;"/><line style="stroke:#181818;stroke-width:1.0;stroke-dasharray:2.0,2.0;" x1="165" x2="470" y1="195.9609" y2="195.9609"/><text fill="#000000" font-family="sans-serif" font-size="13" lengthAdjust="spacing" textLength="88" x="177" y="190.895">NeedsUpdate</text><path d="M486,161.6953 L486,216.6953 L779,216.6953 L779,171.6953 L769,161.6953 L486,161.6953 " fill="#FEFFDD" style="stroke:#181818;stroke-width:0.5;"/><path d="M769,161.6953 L769,171.6953 L779,171.6953 L769,161.6953 " fill="#FEFFDD" style="stroke:#181818;stroke-width:0.5;"/><text fill="#000000" font-family="sans-serif" font-size="13" lengthAdjust="spacing" textLength="194" x="492" y="178.7622">Asset index file does not exist.</text><text fill="#000000" font-family="sans-serif" font-size="13" lengthAdjust="spacing" textLength="272" x="492" y="193.895">Is asset file index created before asset file.</text><text fill="#000000" font-family="sans-serif" font-size="13" lengthAdjust="spacing" textLength="200" x="492" y="209.0278">Asset index file version is latest</text><path d="M115,236.0938 L179,236.0938 L179,243.2266 L169,253.2266 L115,253.2266 L115,236.0938 " fill="#EEEEEE" style="stroke:#000000;stroke-width:1.5;"/><rect fill="none" height="46.2656" style="stroke:#000000;stroke-width:1.5;" width="434.5" x="115" y="236.0938"/><text fill="#000000" font-family="sans-serif" font-size="13" font-weight="bold" lengthAdjust="spacing" textLength="19" x="130" y="249.1606">alt</text><text fill="#000000" font-family="sans-serif" font-size="11" font-weight="bold" lengthAdjust="spacing" textLength="167" x="194" y="248.3042">[asset index file is empty]</text><polygon fill="#181818" points="171,270.3594,161,274.3594,171,278.3594,167,274.3594" style="stroke:#181818;stroke-width:1.0;"/><line style="stroke:#181818;stroke-width:1.0;stroke-dasharray:2.0,2.0;" x1="165" x2="470" y1="274.3594" y2="274.3594"/><text fill="#000000" font-family="sans-serif" font-size="13" lengthAdjust="spacing" textLength="91" x="177" y="269.2935">EntriesLoaded</text><polygon fill="#181818" points="589,306.4922,599,310.4922,589,314.4922,593,310.4922" style="stroke:#181818;stroke-width:1.0;"/><line style="stroke:#181818;stroke-width:1.0;" x1="481" x2="595" y1="310.4922" y2="310.4922"/><text fill="#000000" font-family="sans-serif" font-size="13" lengthAdjust="spacing" textLength="92" x="488" y="305.4263">read_contents</text><polygon fill="#181818" points="589,365.625,599,369.625,589,373.625,593,369.625" style="stroke:#181818;stroke-width:1.0;"/><line style="stroke:#181818;stroke-width:1.0;" x1="481" x2="595" y1="369.625" y2="369.625"/><text fill="#000000" font-family="sans-serif" font-size="13" lengthAdjust="spacing" textLength="96" x="488" y="364.5591">extract_entries</text><polygon fill="#181818" points="171,424.7578,161,428.7578,171,432.7578,167,428.7578" style="stroke:#181818;stroke-width:1.0;"/><line style="stroke:#181818;stroke-width:1.0;stroke-dasharray:2.0,2.0;" x1="165" x2="475" y1="428.7578" y2="428.7578"/><text fill="#000000" font-family="sans-serif" font-size="13" lengthAdjust="spacing" textLength="91" x="177" y="423.6919">EntriesLoaded</text><rect fill="#EEEEEE" height="3" style="stroke:#EEEEEE;stroke-width:1.0;" width="799" x="0" y="457.3242"/><line style="stroke:#000000;stroke-width:1.0;" x1="0" x2="799" y1="457.3242" y2="457.3242"/><line style="stroke:#000000;stroke-width:1.0;" x1="0" x2="799" y1="460.3242" y2="460.3242"/><rect fill="#EEEEEE" height="23.1328" style="stroke:#000000;stroke-width:2.0;" width="205" x="297" y="446.7578"/><text fill="#000000" font-family="sans-serif" font-size="13" font-weight="bold" lengthAdjust="spacing" textLength="186" x="303" y="462.8247">Updating asset file index</text><path d="M115,486.8906 L179,486.8906 L179,494.0234 L169,504.0234 L115,504.0234 L115,486.8906 " fill="#EEEEEE" style="stroke:#000000;stroke-width:1.5;"/><rect fill="none" height="191.5313" style="stroke:#000000;stroke-width:1.5;" width="557.5" x="115" y="486.8906"/><text fill="#000000" font-family="sans-serif" font-size="13" font-weight="bold" lengthAdjust="spacing" textLength="19" x="130" y="499.9575">alt</text><text fill="#000000" font-family="sans-serif" font-size="11" font-weight="bold" lengthAdjust="spacing" textLength="96" x="194" y="499.1011">[NeedsUpdate]</text><line style="stroke:#181818;stroke-width:1.0;" x1="165" x2="207" y1="525.1563" y2="525.1563"/><line style="stroke:#181818;stroke-width:1.0;" x1="207" x2="207" y1="525.1563" y2="538.1563"/><line style="stroke:#181818;stroke-width:1.0;" x1="166" x2="207" y1="538.1563" y2="538.1563"/><polygon fill="#181818" points="176,534.1563,166,538.1563,176,542.1563,172,538.1563" style="stroke:#181818;stroke-width:1.0;"/><text fill="#000000" font-family="sans-serif" font-size="13" lengthAdjust="spacing" textLength="184" x="172" y="520.0903">read_entries_from_asset_file</text><polygon fill="#181818" points="459,593.2891,469,597.2891,459,601.2891,463,597.2891" style="stroke:#181818;stroke-width:1.0;"/><line style="stroke:#181818;stroke-width:1.0;" x1="160" x2="465" y1="597.2891" y2="597.2891"/><text fill="#000000" font-family="sans-serif" font-size="13" lengthAdjust="spacing" textLength="292" x="167" y="592.2231">update_entries(filepath_to_asset_file, entries)</text><polygon fill="#181818" points="589,622.4219,599,626.4219,589,630.4219,593,626.4219" style="stroke:#181818;stroke-width:1.0;"/><line style="stroke:#181818;stroke-width:1.0;" x1="481" x2="595" y1="626.4219" y2="626.4219"/><text fill="#000000" font-family="sans-serif" font-size="13" lengthAdjust="spacing" textLength="93" x="488" y="621.356">write_contents</text><polygon fill="#181818" points="171,666.4219,161,670.4219,171,674.4219,167,670.4219" style="stroke:#181818;stroke-width:1.0;"/><line style="stroke:#181818;stroke-width:1.0;stroke-dasharray:2.0,2.0;" x1="165" x2="475" y1="670.4219" y2="670.4219"/><polygon fill="#181818" points="71,687.4219,61,691.4219,71,695.4219,67,691.4219" style="stroke:#181818;stroke-width:1.0;"/><line style="stroke:#181818;stroke-width:1.0;stroke-dasharray:2.0,2.0;" x1="65" x2="154" y1="691.4219" y2="691.4219"/><!--MD5=[fb7f11de85491db6da0ddf02725b3581]
@startuml
AssetBrowser -> FileList
activate FileList
== Reading asset file index ==
    FileList -> AssetFileIndexer: read_index(filepath_to_asset_file)

    activate AssetFileIndexer
        alt asset index file is up to date
            FileList <- - AssetFileIndexer:  NeedsUpdate
            note right: Asset index file does not exist.\nIs asset file index created before asset file.\nAsset index file version is latest
        end

        alt asset index file is empty
            FileList <- - AssetFileIndexer: EntriesLoaded
        end

        AssetFileIndexer -> AssetIndexFile : read_contents
        activate AssetIndexFile
        deactivate AssetIndexFile

        AssetFileIndexer -> AssetIndexFile : extract_entries
        activate AssetIndexFile
        deactivate AssetIndexFile

        FileList <- - AssetFileIndexer: EntriesLoaded
    deactivate AssetFileIndexer

== Updating asset file index ==
    alt NeedsUpdate
        FileList -> FileList: read_entries_from_asset_file
        activate FileList
        deactivate FileList

        FileList -> AssetFileIndexer: update_entries(filepath_to_asset_file, entries)
        activate AssetFileIndexer
            AssetFileIndexer -> AssetIndexFile: write_contents
            activate AssetIndexFile
            deactivate AssetIndexFile
        FileList <- - AssetFileIndexer

        deactivate AssetFileIndexer
end

deactivate AssetFileIndexer

AssetBrowser <- - FileList
deactivate FileList
@enduml

PlantUML version 1.2022.6(Tue Jun 21 17:34:49 UTC 2022)
(GPL source distribution)
Java Runtime: OpenJDK Runtime Environment
JVM: OpenJDK 64-Bit Server VM
Default Encoding: UTF-8
Language: en
Country: null
--></g></svg>